<?xml version="1.0" standalone="no"?>
<!DOCTYPE svg PUBLIC "-//W3C//DTD SVG 20010904//EN"
 "http://www.w3.org/TR/2001/REC-SVG-20010904/DTD/svg10.dtd">
<svg version="1.0" xmlns="http://www.w3.org/2000/svg"
 width="512.000000pt" height="512.000000pt" viewBox="0 0 512.000000 512.000000"
 preserveAspectRatio="xMidYMid meet">

<g transform="translate(0.000000,512.000000) scale(0.100000,-0.100000)"
fill="#000000" stroke="none">
<path d="M2450 4950 c0 -6 -27 -10 -60 -10 -33 0 -60 -4 -60 -10 0 -5 -13 -10
-30 -10 -16 0 -30 -4 -30 -10 0 -5 -13 -10 -30 -10 -16 0 -30 -4 -30 -10 0 -5
-9 -10 -20 -10 -11 0 -20 -4 -20 -10 0 -5 -9 -10 -20 -10 -11 0 -20 -4 -20
-10 0 -5 -9 -10 -20 -10 -11 0 -20 -4 -20 -10 0 -5 -8 -10 -18 -10 -10 0 -24
-9 -32 -20 -8 -11 -20 -20 -27 -20 -16 0 -183 -165 -183 -181 0 -6 -13 -24
-30 -39 -16 -15 -30 -33 -30 -40 0 -24 -30 -40 -74 -40 -25 0 -46 5 -46 10 0
6 -50 10 -130 10 -80 0 -130 -4 -130 -10 0 -5 -18 -10 -40 -10 -22 0 -40 -4
-40 -10 0 -5 -13 -10 -30 -10 -16 0 -30 -4 -30 -10 0 -5 -9 -10 -20 -10 -11 0
-20 -4 -20 -10 0 -5 -8 -10 -18 -10 -10 0 -24 -9 -32 -20 -8 -11 -20 -20 -27
-20 -17 0 -163 -146 -163 -163 0 -7 -9 -19 -20 -27 -11 -8 -20 -22 -20 -32 0
-10 -4 -18 -10 -18 -5 0 -10 -9 -10 -20 0 -11 -4 -20 -10 -20 -5 0 -10 -9 -10
-20 0 -11 -4 -20 -10 -20 -5 0 -10 -13 -10 -30 0 -16 -4 -30 -10 -30 -6 0 -10
-27 -10 -60 0 -33 -4 -60 -10 -60 -6 0 -10 -27 -10 -60 0 -33 4 -60 10 -60 6
0 10 -27 10 -60 0 -33 4 -60 10 -60 6 0 10 -13 10 -30 0 -16 5 -30 10 -30 6 0
10 -13 10 -30 0 -16 5 -30 10 -30 6 0 10 -8 10 -18 0 -10 9 -24 20 -32 11 -8
20 -21 20 -28 0 -8 14 -27 30 -42 16 -15 30 -33 30 -39 0 -15 46 -61 61 -61 6
0 24 -13 39 -30 15 -16 35 -30 44 -30 9 0 16 -4 16 -10 0 -5 9 -10 20 -10 11
0 20 -4 20 -10 0 -5 9 -10 20 -10 11 0 20 -4 20 -10 0 -5 9 -10 20 -10 11 0
20 -4 20 -10 0 -5 14 -10 30 -10 17 0 30 -4 30 -10 0 -6 32 -10 76 -10 52 0
80 -4 90 -14 17 -17 21 -186 4 -186 -6 0 -10 -47 -10 -120 0 -73 -4 -120 -10
-120 -6 0 -10 -47 -10 -120 0 -73 -4 -120 -10 -120 -6 0 -10 -40 -10 -100 l0
-100 1060 0 1060 0 0 120 c0 73 -4 120 -10 120 -6 0 -10 47 -10 120 0 73 -4
120 -10 120 -6 0 -10 50 -10 130 0 80 -4 130 -10 130 -16 0 -12 109 4 126 10
10 38 14 90 14 44 0 76 4 76 10 0 6 14 10 30 10 17 0 30 5 30 10 0 6 14 10 30
10 17 0 30 5 30 10 0 6 8 10 18 10 10 0 24 9 32 20 8 11 21 20 30 20 9 0 22 9
30 20 8 11 20 20 27 20 16 0 103 85 103 101 0 6 14 24 30 39 17 15 30 35 30
44 0 9 5 16 10 16 6 0 10 9 10 20 0 11 5 20 10 20 6 0 10 9 10 20 0 11 5 20
10 20 6 0 10 14 10 30 0 17 5 30 10 30 6 0 10 23 10 50 0 28 5 50 10 50 6 0
10 40 10 100 0 60 -4 100 -10 100 -5 0 -10 18 -10 40 0 22 -4 40 -10 40 -5 0
-10 14 -10 30 0 17 -4 30 -10 30 -5 0 -10 13 -10 28 0 16 -8 34 -20 42 -11 8
-20 22 -20 32 0 10 -4 18 -10 18 -5 0 -10 7 -10 15 0 19 -164 185 -183 185 -7
0 -19 9 -27 20 -8 11 -22 20 -32 20 -10 0 -18 5 -18 10 0 6 -9 10 -20 10 -11
0 -20 5 -20 10 0 6 -13 10 -30 10 -16 0 -30 5 -30 10 0 6 -18 10 -40 10 -22 0
-40 5 -40 10 0 6 -50 10 -130 10 -80 0 -130 -4 -130 -10 0 -15 -49 -12 -66 4
-8 8 -14 21 -14 28 0 8 -9 20 -20 28 -11 8 -20 20 -20 27 0 19 -207 223 -225
223 -8 0 -15 5 -15 10 0 6 -8 10 -18 10 -10 0 -24 9 -32 20 -8 11 -22 20 -32
20 -10 0 -18 5 -18 10 0 6 -13 10 -30 10 -16 0 -30 5 -30 10 0 6 -9 10 -20 10
-11 0 -20 5 -20 10 0 6 -18 10 -40 10 -22 0 -40 5 -40 10 0 6 -22 10 -50 10
-27 0 -50 5 -50 10 0 6 -43 10 -110 10 -67 0 -110 -4 -110 -10z"/>
<path d="M1333 2135 c-39 -41 -24 -115 21 -115 9 0 16 -4 16 -10 0 -7 390 -10
1150 -10 760 0 1150 3 1150 10 0 6 7 10 16 10 27 0 44 27 44 70 0 23 -6 48
-14 56 -13 12 -184 14 -1188 13 l-1173 0 -22 -24z"/>
<path d="M1930 1710 c0 -5 -18 -10 -40 -10 -22 0 -40 -4 -40 -10 0 -5 -13 -10
-30 -10 -16 0 -30 -4 -30 -10 0 -5 -9 -10 -20 -10 -11 0 -20 -4 -20 -10 0 -5
-8 -10 -18 -10 -10 0 -24 -9 -32 -20 -8 -11 -21 -20 -28 -20 -8 0 -27 -13 -42
-30 -15 -16 -33 -30 -39 -30 -14 0 -161 -146 -161 -160 0 -6 -31 -42 -70 -80
-38 -38 -70 -74 -70 -80 0 -14 -127 -140 -141 -140 -6 0 -24 -13 -39 -30 -15
-16 -34 -30 -42 -30 -7 0 -20 -9 -28 -20 -8 -11 -22 -20 -32 -20 -10 0 -18 -4
-18 -10 0 -5 -13 -10 -30 -10 -16 0 -30 -4 -30 -10 0 -5 -18 -10 -40 -10 -22
0 -40 -4 -40 -10 0 -6 -47 -10 -120 -10 -73 0 -120 4 -120 10 0 6 -13 10 -30
10 -16 0 -30 5 -30 10 0 6 -8 10 -18 10 -10 0 -24 9 -32 20 -8 11 -20 20 -28
20 -18 0 -82 66 -82 85 0 8 -4 15 -10 15 -5 0 -10 9 -10 20 0 11 -4 20 -10 20
-5 0 -10 9 -10 20 0 11 -4 20 -10 20 -5 0 -10 18 -10 40 0 22 -4 40 -10 40 -6
0 -10 27 -10 60 0 33 -4 60 -10 60 -5 0 -10 -9 -10 -20 0 -11 -4 -20 -10 -20
-5 0 -10 -18 -10 -40 0 -22 -4 -40 -10 -40 -5 0 -10 -18 -10 -40 0 -22 -4 -40
-10 -40 -6 0 -10 -40 -10 -100 0 -60 4 -100 10 -100 6 0 10 -22 10 -50 0 -27
5 -50 10 -50 6 0 10 -13 10 -30 0 -16 5 -30 10 -30 6 0 10 -9 10 -20 0 -11 5
-20 10 -20 6 0 10 -8 10 -18 0 -10 9 -24 20 -32 11 -8 20 -20 20 -27 0 -17
166 -183 183 -183 7 0 19 -9 27 -20 8 -11 21 -20 30 -20 9 0 22 -9 30 -20 8
-11 22 -20 32 -20 10 0 18 -4 18 -10 0 -5 9 -10 20 -10 11 0 20 -4 20 -10 0
-5 14 -10 30 -10 17 0 30 -4 30 -10 0 -5 14 -10 30 -10 17 0 30 -4 30 -10 0
-5 14 -10 30 -10 17 0 30 -4 30 -10 0 -5 18 -10 40 -10 22 0 40 -4 40 -10 0
-6 30 -10 70 -10 40 0 70 -4 70 -10 0 -6 63 -10 170 -10 107 0 170 4 170 10 0
6 30 10 70 10 40 0 70 4 70 10 0 6 18 10 40 10 22 0 40 5 40 10 0 6 18 10 40
10 22 0 40 5 40 10 0 6 14 10 30 10 17 0 30 5 30 10 0 6 9 10 20 10 11 0 20 5
20 10 0 6 14 10 30 10 17 0 30 5 30 10 0 6 9 10 20 10 11 0 20 5 20 10 0 6 9
10 20 10 11 0 20 5 20 10 0 6 9 10 20 10 11 0 20 5 20 10 0 6 8 10 18 10 10 0
24 9 32 20 8 11 21 20 30 20 9 0 22 9 30 20 8 11 20 20 28 20 7 0 35 23 62 50
27 28 54 50 60 50 14 0 60 46 60 60 0 7 18 29 40 50 22 21 40 45 40 52 0 7 9
20 20 28 11 8 20 22 20 32 0 10 5 18 10 18 6 0 10 7 10 16 0 15 23 44 34 44 3
0 6 -9 6 -20 0 -11 5 -20 10 -20 6 0 10 -8 10 -18 0 -10 9 -24 20 -32 11 -8
20 -21 20 -30 0 -9 9 -22 20 -30 11 -8 20 -20 20 -27 0 -16 165 -183 181 -183
6 0 24 -13 39 -30 15 -16 34 -30 42 -30 7 0 20 -9 28 -20 8 -11 22 -20 32 -20
10 0 18 -4 18 -10 0 -5 9 -10 20 -10 11 0 20 -4 20 -10 0 -5 8 -10 18 -10 10
0 24 -9 32 -20 8 -12 26 -20 42 -20 15 0 28 -4 28 -10 0 -5 9 -10 20 -10 11 0
20 -4 20 -10 0 -5 14 -10 30 -10 17 0 30 -4 30 -10 0 -5 14 -10 30 -10 17 0
30 -4 30 -10 0 -5 14 -10 30 -10 17 0 30 -4 30 -10 0 -5 23 -10 50 -10 28 0
50 -4 50 -10 0 -6 27 -10 60 -10 33 0 60 -4 60 -10 0 -6 67 -10 180 -10 113 0
180 4 180 10 0 6 27 10 60 10 33 0 60 4 60 10 0 6 23 10 50 10 28 0 50 5 50
10 0 6 14 10 30 10 17 0 30 5 30 10 0 6 14 10 30 10 17 0 30 5 30 10 0 6 9 10
20 10 11 0 20 5 20 10 0 6 9 10 20 10 11 0 20 5 20 10 0 6 9 10 20 10 11 0 20
5 20 10 0 6 9 10 20 10 11 0 20 5 20 10 0 6 7 10 16 10 9 0 29 13 44 30 15 17
33 30 39 30 16 0 141 127 141 143 0 7 9 19 20 27 11 8 20 22 20 32 0 10 5 18
10 18 6 0 10 9 10 20 0 11 5 20 10 20 6 0 10 9 10 20 0 11 5 20 10 20 6 0 10
18 10 40 0 22 5 40 10 40 6 0 10 27 10 60 0 33 4 60 10 60 6 0 10 14 10 30 0
17 -4 30 -10 30 -6 0 -10 30 -10 70 0 40 -4 70 -10 70 -5 0 -10 18 -10 40 0
22 -4 40 -10 40 -5 0 -10 14 -10 30 0 17 -4 30 -10 30 -5 0 -10 -18 -10 -40 0
-22 -4 -40 -10 -40 -5 0 -10 -22 -10 -50 0 -27 -4 -50 -10 -50 -5 0 -10 -13
-10 -28 0 -16 -8 -34 -20 -42 -11 -8 -20 -20 -20 -27 0 -19 -106 -123 -125
-123 -8 0 -15 -4 -15 -10 0 -5 -9 -10 -20 -10 -11 0 -20 -4 -20 -10 0 -5 -13
-10 -30 -10 -16 0 -30 -4 -30 -10 0 -6 -47 -10 -120 -10 -73 0 -120 4 -120 10
0 6 -18 10 -40 10 -22 0 -40 5 -40 10 0 6 -9 10 -20 10 -11 0 -20 5 -20 10 0
6 -9 10 -20 10 -11 0 -20 5 -20 10 0 6 -8 10 -18 10 -10 0 -24 9 -32 20 -8 11
-20 20 -27 20 -15 0 -283 265 -283 280 0 15 -248 260 -263 260 -7 0 -19 9 -27
20 -8 11 -21 20 -30 20 -9 0 -22 9 -30 20 -8 12 -26 20 -42 20 -15 0 -28 5
-28 10 0 6 -9 10 -20 10 -11 0 -20 5 -20 10 0 6 -18 10 -40 10 -22 0 -40 5
-40 10 0 6 -47 10 -120 10 -73 0 -120 -4 -120 -10 0 -5 -18 -10 -40 -10 -22 0
-40 -4 -40 -10 0 -5 -9 -10 -20 -10 -11 0 -20 -4 -20 -10 0 -5 -7 -10 -16 -10
-9 0 -29 -13 -44 -30 -15 -16 -33 -30 -40 -30 -15 0 -40 -25 -40 -40 0 -7 -13
-25 -30 -40 -17 -15 -30 -35 -30 -44 0 -9 -4 -16 -10 -16 -5 0 -10 -9 -10 -20
0 -11 -3 -20 -6 -20 -11 0 -34 29 -34 44 0 9 -4 16 -10 16 -5 0 -10 7 -10 15
0 19 -124 145 -143 145 -7 0 -19 9 -27 20 -8 12 -26 20 -42 20 -15 0 -28 5
-28 10 0 6 -13 10 -30 10 -16 0 -30 5 -30 10 0 6 -47 10 -120 10 -73 0 -120
-4 -120 -10z"/>
</g>
</svg>
